<svg id="visual" viewBox="0 0 900 600" width="900" height="600" xmlns="http://www.w3.org/2000/svg" xmlns:xlink="http://www.w3.org/1999/xlink" version="1.1"><rect x="0" y="0" width="900" height="600" fill="#EFC6CC"></rect><path d="M0 299L47 299L47 293L95 293L95 279L142 279L142 287L189 287L189 285L237 285L237 273L284 273L284 369L332 369L332 271L379 271L379 325L426 325L426 332L474 332L474 329L521 329L521 279L568 279L568 261L616 261L616 299L663 299L663 327L711 327L711 355L758 355L758 298L805 298L805 312L853 312L853 291L900 291L900 359L900 601L900 601L853 601L853 601L805 601L805 601L758 601L758 601L711 601L711 601L663 601L663 601L616 601L616 601L568 601L568 601L521 601L521 601L474 601L474 601L426 601L426 601L379 601L379 601L332 601L332 601L284 601L284 601L237 601L237 601L189 601L189 601L142 601L142 601L95 601L95 601L47 601L47 601L0 601Z" fill="#bea5a9"></path><path d="M0 420L47 420L47 374L95 374L95 419L142 419L142 393L189 393L189 389L237 389L237 368L284 368L284 430L332 430L332 393L379 393L379 402L426 402L426 429L474 429L474 428L521 428L521 371L568 371L568 432L616 432L616 370L663 370L663 418L711 418L711 385L758 385L758 432L805 432L805 381L853 381L853 431L900 431L900 440L900 601L900 601L853 601L853 601L805 601L805 601L758 601L758 601L711 601L711 601L663 601L663 601L616 601L616 601L568 601L568 601L521 601L521 601L474 601L474 601L426 601L426 601L379 601L379 601L332 601L332 601L284 601L284 601L237 601L237 601L189 601L189 601L142 601L142 601L95 601L95 601L47 601L47 601L0 601Z" fill="#897175"></path><path d="M0 475L47 475L47 501L95 501L95 511L142 511L142 473L189 473L189 459L237 459L237 469L284 469L284 517L332 517L332 453L379 453L379 483L426 483L426 483L474 483L474 516L521 516L521 466L568 466L568 518L616 518L616 468L663 468L663 511L711 511L711 517L758 517L758 494L805 494L805 517L853 517L853 519L900 519L900 482L900 601L900 601L853 601L853 601L805 601L805 601L758 601L758 601L711 601L711 601L663 601L663 601L616 601L616 601L568 601L568 601L521 601L521 601L474 601L474 601L426 601L426 601L379 601L379 601L332 601L332 601L284 601L284 601L237 601L237 601L189 601L189 601L142 601L142 601L95 601L95 601L47 601L47 601L0 601Z" fill="#574145"></path></svg>